<?xml version="1.0" encoding="utf-8"?>
<!-- Generator: Adobe Illustrator 25.3.0, SVG Export Plug-In . SVG Version: 6.00 Build 0)  -->
<svg version="1.1" id="Capa_1" xmlns="http://www.w3.org/2000/svg" xmlns:xlink="http://www.w3.org/1999/xlink" x="0px" y="0px"
	 viewBox="0 0 7808 1989.6" style="enable-background:new 0 0 7808 1989.6;" xml:space="preserve">
<style type="text/css">
	.st0{fill:#050505;}
</style>
<g>
	<g>
		<path class="st0" d="M2187,0.2c-50.2,2.8-91.4,7.6-114,13.4c-4.2,1.1-28.7,10.1-54.4,20l-46.9,18l-14.1,1.6
			C1794.8,70.9,1547,139.4,1345,222.5c-131,54-246,115.9-327,176.1c-48.6,36.2-86.8,72-116.2,109c-7.5,9.5-20.8,28.2-20.8,29.4
			c0,0.3,337.3,0.6,749.5,0.6H2380V309.7c0-246.6,0.3-234.2-5.2-251.1c-4.2-13.1-9.8-22.5-21-35.2c-9.7-11-17.3-14.9-35.1-18.3
			c-20.6-3.9-33.4-4.7-79.7-5C2214,0,2190.6,0,2187,0.2z M1993.5,240.6c18.2,2.7,34.1,16.2,39.5,33.7c1.9,6.2,2,9.2,2,65.2
			c0,50.8-0.2,59.5-1.6,64.2c-4.7,15.7-16.8,28.1-32.4,33c-6.3,1.9-9.3,1.9-110.5,1.7l-104-0.3l-5.5-2.2
			c-11.8-4.9-23.2-16.3-28.2-28.3l-2.3-5.5l-0.3-60.4c-0.3-66.6-0.4-65.7,6-77c6.9-12,21.3-22.1,34.3-24
			C1799.2,239.5,1984.9,239.4,1993.5,240.6L1993.5,240.6z"/>
		<path class="st0" d="M858.3,586.5c-5.7,13.7-10.6,25.6-10.9,26.5c-0.6,1.5,3.5,1.6,46,1.6c25.6,0,46.6,0.4,46.6,0.8
			c0,3.6-31.5,93.2-53.5,152.2c-19.6,52.7-31.9,87.4-47.2,133c-5.8,17.3-10.6,31.6-10.7,31.7s-9.7,0.7-21.4,1.3
			c-14.2,0.7-30.6,2.3-49.9,5.1c-156.1,21.9-312.1,52.7-414.3,81.8c-53.5,15.2-169.6,52.2-193.5,61.6c-65.4,25.7-89.3,52.5-105,118
			c-12.5,52-23.1,129.4-28,204.5c-2,31.1-2,34,0.3,34c0.9,0,87.4,1.8,192.2,4.1l190.5,4.1l19.5-19.4c10.7-10.6,24.7-23.3,31-28.2
			c54.1-41.7,112-65.5,179.5-73.8c16.9-2,65.5-1.7,82.5,0.5c115.2,15.3,212.3,81.6,267.5,182.7c40.1,73.5,52.6,163.4,34,245.5
			c-1.4,6-2.5,11.5-2.5,12.2c0,1,12,1.3,59,1.3h59l0.2,31.2l0.3,31.3h406l0.3-31.3l0.2-31.2h503l0.2,31.2l0.3,31.3l294.8,0.3
			l294.7,0.2v-63h24c14.3,0,24-0.4,24-0.9s-0.9-4.7-2-9.3c-6.8-28.3-9.4-53.8-8.7-87.8c0.6-27.7,1.8-39.8,6.3-62.4
			c11-54.8,35-106.1,69.8-149.8c12.5-15.7,35.7-39.6,48.4-49.7c2.3-1.9,4.2-3.8,4.2-4.3s-73.4-0.8-163-0.8h-163.1l0.7-75.3
			c0.3-41.3,0.9-117.6,1.3-169.5l0.6-94.2H2168v345h-13v-345H1041v-24h1114v-478H868.5L858.3,586.5z M1591,802.1v193.5h-269
			c-253.4,0-269-0.1-269-1.7c0-7.5,28.8-122.3,41.1-163.6l2-6.7h73.9v-165h-6.5c-3.6,0-6.5-0.4-6.5-0.8c0-1.1,19.8-40.2,22.9-45.5
			l2.3-3.7H1591V802.1z M1161,741.1v73.5h-62v-147h62V741.1z M1693,742.6v72h-61v-144h61V742.6z M261,1355.1v51.5H69.1l0.4-6.3
			c0.3-3.4,0.7-13.2,1-21.7c0.9-29.4,4.7-50.1,12-65.8l4.4-9.2H261V1355.1z M1880,1545.6v13h-185v-26h185V1545.6z M1922,1614.6v13
			h-269v-26h269V1614.6z M1954,1683.6v13h-333v-26h333V1683.6z"/>
		<path class="st0" d="M2168.2,800.3l0.3,238.8l151.3,0.3c120.5,0.2,151.3,0,151.6-1c0.3-0.7,0.9-78.7,1.5-173.3
			s1.4-201.6,1.8-237.8l0.6-65.7H2168L2168.2,800.3z"/>
		<path class="st0" d="M2593,1308.6v49h5215v-98H2593V1308.6z"/>
		<path class="st0" d="M650,1409.3c-39.9,3.8-68.9,11.8-101.2,27.9c-45.8,22.9-84.1,58.5-110.3,102.5
			c-24.9,41.8-37.5,87.6-37.5,136.9c0,62.1,20.4,119.9,59.6,169c8.6,10.8,28.3,30.5,39.4,39.3c26.1,21,58.7,38.4,89.5,47.8l9,2.8
			H299.3L0,1935.6v54h7808v-54h-197.5l14.5-4.9c96.9-32.5,165.7-115.3,180.5-217.3c2.3-15.3,3-43,1.6-58.8
			c-4.9-55-26.7-108.4-60.9-149c-9.2-11-28.5-30.1-38.8-38.3c-30.7-24.6-69.9-43.4-109.1-52.2c-20.8-4.6-33.2-5.9-58.3-5.9
			c-30.4,0-48.1,2.5-76,10.5c-50.5,14.7-99.1,47.3-133,89.3c-22.7,28.2-41.4,65.6-50.5,101.2c-23.4,91.7,3.2,188.9,70.1,255.8
			c29.2,29.5,65,51.7,104.4,64.7l14.5,4.9h-269l-269-0.1l13.1-4.3c93-30.7,162.2-110,179.8-206c7.8-42.6,5.2-86.5-7.5-127.9
			c-13-42.3-36.9-81-69.5-112.7c-41.7-40.5-91.8-64.9-150.9-73.6c-18.1-2.7-55.3-2.5-74,0.4c-49.2,7.6-96.4,28.6-132.5,59
			c-11.6,9.7-30.4,28.9-39,39.7c-20.7,26.5-36.4,56.6-46.4,88.8c-7.2,23.9-10.4,43.4-11.3,69.7c-3.9,118.2,70.1,224.3,182.7,262.1
			l14.5,4.9l-1511.5-0.1H3767.5l11.5-3.8c57.6-19.2,105-54.7,138.8-104c49.8-72.4,60.5-165.1,28.6-247.8
			c-24.9-64.8-77.2-119.8-140.2-147.8c-102.5-45.4-220.8-23.5-299.2,55.4c-42.4,42.4-69.3,97.7-76.5,157.2c-2,16.1-2,47.7,0,63.8
			c6.2,49.5,26.4,97.8,57.1,136.1c9.3,11.6,29.9,32,41.4,41.2c24.6,19.8,52.6,35,82.5,45l14,4.7H3357l-268.5,0.1l14-4.8
			c41.2-14.1,74.1-34.6,104.5-65.1c20.9-20.9,36.1-41.8,48.9-67c13.5-26.5,21-49.3,26.2-79.6c2.7-15.2,3.7-52.9,2-69.7
			c-6.7-64.4-38.1-127-85.3-169.9c-39.1-35.6-84.4-57.9-135.8-66.8c-98.7-17.3-199.4,22.7-259.9,103.3
			c-21.7,29.3-37.4,62.7-46.1,98.1c-21.2,88.3,3.8,181.4,66.5,247.2c31.2,32.8,67.6,55.8,111.5,70.4l11.5,3.8h-2207l11.5-3.8
			c23.1-7.5,45.1-18.1,65.4-31.5c65.5-43.8,107.5-111.1,118.2-189.6c2.1-15.2,2.4-49.7,0.5-64.5c-5.5-43.6-20-82.9-43.6-118
			c-46.2-68.6-118.4-111.3-200.5-118.5C680.3,1408.7,658,1408.5,650,1409.3L650,1409.3z M693,1531.1
			c58.6,9.5,105.9,54.1,119.8,112.8c2.4,10.2,2.6,13,2.7,32.2c0,23-1,29.9-6.6,47c-7.3,22-18.8,40.4-35.9,57.6
			c-22.3,22.4-48.1,35.9-79.5,41.6c-12.3,2.3-37.7,2.2-50.4-0.1c-46.6-8.3-86.4-38.5-107.1-81.1c-5.9-12-9.1-21.5-12.1-35.5
			c-3.2-15-3.3-42.9-0.1-57.6c9.8-45.2,37.3-81.8,77.1-102.3C630.1,1530.8,660.7,1525.9,693,1531.1z M3039,1530.7
			c53.2,7.2,99.8,45.6,117.9,97.2c5.9,17,7.5,27,7.6,48.7c0,16.8-0.3,20.9-2.3,29.9c-12.6,56.2-53.4,99.1-107.7,113.1
			c-74.3,19.2-150.9-21.7-176.3-94.1c-6.1-17.4-7.7-27.3-7.7-48.9c0.1-16.3,0.5-21.2,2.3-29.7c7.1-32.5,24.5-62,48.6-82.3
			C2955.1,1536.3,2995.1,1524.8,3039,1530.7L3039,1530.7z M3718,1530.7c54,7.2,101,46.5,118.5,99.2c6,18.1,7,24.9,7,47.2
			c-0.1,16.7-0.5,21.6-2.3,29.7c-5.9,28.2-20.1,54.1-40.7,74.3c-31,31.2-73.5,46.7-116.7,42.6c-65.8-6.1-117.9-52.5-132-117.4
			c-3-13.6-3.2-43.4-0.5-57.1c9.2-45.9,37.8-83.6,79.3-104.5C3657.8,1531.1,3686.3,1526.5,3718,1530.7L3718,1530.7z M6886,1531.3
			c11.6,1.8,29.9,7.7,40.7,13.1c29,14.6,54,40.2,67.7,69.2c22.3,47.5,18.2,101.8-11.3,146c-7.1,10.6-23,27.3-34.1,35.6
			c-16.6,12.5-40.5,22.8-62.5,27c-13.7,2.7-38.7,2.4-53.3-0.4c-60.8-12.1-106.7-59-117.9-120.7c-1.1-5.8-1.6-14.5-1.6-24.5
			c0-23.6,4-42.2,13.4-62c8.7-18.3,18.2-31.3,32.7-45.2C6793.4,1537.5,6838.7,1523.8,6886,1531.3L6886,1531.3z M7565,1531.3
			c29.1,4.6,56.9,19.1,79,41.2c25.9,25.9,39.7,55.3,43.1,91.7c6.3,75.3-45.1,143.3-119.3,157.6c-14.6,2.8-39.6,3.1-53.3,0.4
			c-22-4.2-45.9-14.5-62.5-27c-40.8-30.7-63.6-81-59-130.4c3.4-37.1,17.1-66.4,42.9-92.3C7470.5,1537.9,7515.8,1523.5,7565,1531.3
			L7565,1531.3z"/>
		<path class="st0" d="M12,1506.1v42.5h327.5l2.4-6.3c6.9-18.2,24.9-50.9,38.2-69.5c3.2-4.5,5.9-8.5,5.9-8.7s-84.1-0.5-187-0.5H12
			V1506.1z"/>
		<path class="st0" d="M161.5,1570.1c-87.4,0.7-159.1,1.3-159.2,1.4S2,1576.3,2,1582v10.4l4.6,1.1c10.2,2.6,17.9,8.8,22.3,18.1
			c2.1,4.6,2.6,6.9,2.6,13.5c-0.1,9.3-2.2,14.9-8,21.3c-3.9,4.4-14.3,10.2-18.1,10.2c-2.1,0-2.2,0.4-2.8,12.2
			c-1.2,24-2.7,71-2.3,71.4c0.2,0.2,65.1,1.5,144.3,2.9s151.5,2.6,160.7,2.8l16.9,0.3l-0.6-2.8c-2.2-10.9-4.7-33.1-5.6-48.6
			c-2.2-41.4,2.9-82.2,15.6-124.5c0.5-1.5-0.2-1.7-5.3-1.5C323.1,1568.9,249,1569.5,161.5,1570.1L161.5,1570.1z"/>
		<path class="st0" d="M6115.6,1359H7456v-117.5h-634.3l-635.2-869.7v-0.4H4223.2v0.1l-635.6,870.2h-546.8v117.5h1247l25.6,41.3v1.6
			h1l193.5,312.5l0.2-0.1v0.1h1389.4v-3.4L6115.6,1359z M6050,1241.5v0.2l-26.5,42.8h-154.3v-186.9h702l105.1,143.8L6050,1241.5z
			 M5869.2,793.3h479.7l136.5,186.9h-616.2V793.3z M5751.7,980.2h-490.1V793.3h490.1V980.2z M5869.2,675.8V488.9h257.4L6263,675.8
			H5869.2z M5751.7,675.8h-490.1V488.9h490.1V675.8z M5144.1,675.8h-490.2V488.9h490.2V675.8z M4536.4,675.8h-390l136.5-186.9h253.5
			V675.8z M4536.4,793.3v186.9H3924l136.5-186.9L4536.4,793.3L4536.4,793.3z M4653.9,793.3h490.2v186.9h-490.2V793.3z
			 M5144.1,1097.7v186.9h-490.2v-186.9H5144.1z M5261.6,1097.7h490.1v186.9h-490.1V1097.7z M3838.3,1097.7h698.2v186.9h-156.6
			l-25.8-41.7v-1.2h-0.8l-0.1-0.2l-0.3,0.2h-619.8L3838.3,1097.7z M4452.6,1402h1498.2L5830,1597H4573.4L4452.6,1402z"/>
	</g>
</g>
</svg>
