<?xml version="1.0" encoding="utf-8"?>
<!-- Generator: Adobe Illustrator 24.1.1, SVG Export Plug-In . SVG Version: 6.00 Build 0)  -->
<svg version="1.1" id="master-artboard" xmlns="http://www.w3.org/2000/svg" xmlns:xlink="http://www.w3.org/1999/xlink" x="0px"
	 y="0px" viewBox="0 0 455.1 351.4" style="enable-background:new 0 0 455.1 351.4;" xml:space="preserve">
<style type="text/css">
	.st0{fill:#3C312A;stroke:#000000;}
	.st1{fill:#FFFBD3;}
	.st2{fill:#3C312A;}
	.st3{fill:#BFC6B4;enable-background:new    ;}
	.st4{fill:#BFC6B4;}
	.st5{fill:#3C312A;stroke:#000000;enable-background:new    ;}
</style>
<path class="st0" d="M430.2,70.7c-18.4-15.7-32.6-31.3-43-43.2c-9.6-11-30.7-19.1-50.2-19.1c-3.5,0-6.9,0.3-10.1,0.8
	c-12.9,2.1-20.8,5.6-26.7,8.2c-4.7,2.1-7.1,3.1-9.9,3.1c-0.4,0-0.9,0-1.4-0.1c-2.4-0.3-5.7-1.8-9.5-3.5
	c-9.3-4.3-23.4-10.8-48.5-10.8c-1.1,0-2.2,0-3.3,0c-1.2,0-2.3,0-3.4,0c-25.1,0-39.2,6.5-48.5,10.8c-3.8,1.7-7,3.3-9.4,3.5
	c-0.5,0.1-1,0.1-1.4,0.1c-2.8,0-5.2-1-9.9-3.1c-5.8-2.5-13.8-6-26.7-8.2c-3.2-0.5-6.6-0.8-10.1-0.8c-19.5,0-40.6,8-50.2,19.1
	C57.7,39.4,43.4,55,25,70.7C9.2,84.2,2.9,95.5,6.2,104.5c1.9,5.1,6.7,8.3,12.4,8.3c0.3,0,0.7,0,1.1,0c2.5-0.2,7.7-0.5,25.4-14.9
	c6.2-5,13.8-11.6,19-17.4c0.2,0,0.3,0,0.5-0.1c0.4-0.1,0.7-0.1,1.1-0.1c1.2,1.3,3.1,3.7,4.6,5.5c8,9.9,21.1,26.3,40.8,38.3
	c-0.1,4.5,0,9.2,0.3,13.9c1.9,28.6,9.6,49.5,31.5,85.6c13.2,21.8,15.9,38.2,19,57.4c1.6,10.1,3.3,20.6,6.7,32.1
	c6,20.2,23.7,31.8,48.5,31.8c4.7,0,8.1-2.1,10.2-2.4c2.1,0.3,6.2,2.4,10.8,2.4c24.8,0,42.5-11.5,48.5-31.8c3.4-11.5,5.1-22,6.7-32.1
	c3.1-19.1,5.8-35.6,19-57.4c22-36.1,29.6-56.9,31.5-85.6c0.3-4.7,0.4-9.4,0.3-13.9c19.7-12,32.9-28.4,40.8-38.3
	c1.5-1.8,3.4-4.2,4.6-5.5c0.3,0,0.7,0.1,1.1,0.1c0.2,0,0.3,0,0.5,0.1c5.2,5.7,12.9,12.3,19,17.4c17.7,14.4,22.9,14.7,25.4,14.9
	c0.4,0,0.7,0,1,0c5.8,0,10.5-3.2,12.4-8.3C452.3,95.5,445.9,84,430.2,70.7z"/>
<path class="st1" d="M423.1,78.8c-18.9-16.1-33.5-32-44.1-44.1c-7.5-8.5-25.9-15.2-42-15.2c-2.9,0-5.7,0.2-8.4,0.7
	c-11.5,1.9-18.5,4.9-24.1,7.4c-5.1,2.2-9.1,4-14.3,4c-0.8,0-1.7,0-2.6-0.1c-4.2-0.4-8.2-2.3-12.9-4.5c-9.4-4.3-22.4-10.3-47.3-9.8
	c-1.2,0-2.3,0-3.4,0c-22.7,0-35,5.7-44,9.8c-4.7,2.1-8.7,4-12.9,4.5c-0.9,0.1-1.7,0.1-2.6,0.1c-5.2,0-9.2-1.8-14.3-4
	c-5.6-2.4-12.6-5.5-24.1-7.4c-2.6-0.4-5.4-0.7-8.4-0.7c-16.1,0-34.5,6.7-42,15.2C65.1,46.8,50.5,62.8,31.6,78.8
	C17.4,90.8,15.1,98,16,100.4c0.3,0.9,1.2,1.3,2.5,1.2c5.8-0.4,32.4-22.1,39.8-31.7c12.6-20.6,30.1-31,51.9-31
	c7.1,0,13.7,1.1,18.1,1.9c10.9,2.1,17.3,5.9,19,11.3c1.7,5.2-1,11.5-7.9,18.8c-13.1,13.9-19.6,38-17.7,66.1c1.8,26.5,9,46,29.9,80.3
	c14.3,23.5,17.3,41.7,20.4,61.1c1.6,9.7,3.2,19.8,6.4,30.6c6.2,20.8,26.5,23.9,38,23.9c5.9,0,10.2-0.8,10.2-0.8l0.3-0.1l0.3,0.1
	c0,0,4.3,0.8,10.2,0.8c11.6,0,31.9-3.1,38-23.9c3.2-10.8,4.9-20.9,6.4-30.6c3.1-19.3,6.1-37.6,20.4-61.1
	c20.9-34.3,28.2-53.8,29.9-80.3c1.9-28.1-4.6-52.2-17.7-66.1c-6.9-7.3-9.5-13.6-7.9-18.8c1.8-5.4,8.2-9.2,19-11.3
	c4.3-0.8,10.9-1.9,18.1-1.9c21.8,0,39.3,10.4,51.9,31c7.4,9.5,34,31.3,39.8,31.7c0.1,0,0.2,0,0.3,0l0,0c1.1,0,1.9-0.4,2.2-1.2
	C439.6,98,437.3,90.8,423.1,78.8z M169.9,148.1c-11.5,0-20.9-9.4-20.9-20.9s9.4-20.9,20.9-20.9s20.9,9.4,20.9,20.9
	C190.8,138.7,181.4,148.1,169.9,148.1z M261,294.9c-1.4,22.1-31.9,26.6-33.2,26.8h-0.2h-0.2c-1.3-0.2-31.8-4.7-33.2-26.8
	c-0.3-5,1.2-9.3,4.4-12.7c8.9-9.5,28.4-9.1,29-9.1c0,0,0.2,0,0.5,0c3.3,0,20.3,0.4,28.4,9.1C259.8,285.6,261.3,289.9,261,294.9z
	 M285.3,148.1c-11.5,0-20.9-9.4-20.9-20.9s9.4-20.9,20.9-20.9s20.9,9.4,20.9,20.9S296.9,148.1,285.3,148.1z"/>
<path class="st2" d="M285.3,109.3c-9.9,0-17.9,8-17.9,17.9s8,17.9,17.9,17.9s17.9-8,17.9-17.9S295.2,109.3,285.3,109.3z"/>
<path class="st2" d="M229,274.2c-0.3,0-0.5,0-0.5,0c-0.1,0-0.3,0-0.6,0c-3.1,0-18.9,0.4-26.3,8.2c-2.6,2.8-3.8,6.3-3.6,10.5
	c1.1,18.8,27.7,23.6,30.4,24c2.6-0.4,29.2-5.2,30.4-24c0.3-4.2-1-7.7-3.6-10.5C248,274.6,232.1,274.2,229,274.2z"/>
<path class="st2" d="M169.9,109.3c-9.9,0-17.9,8-17.9,17.9s8,17.9,17.9,17.9s17.9-8,17.9-17.9S179.7,109.3,169.9,109.3z"/>
<path class="st2" d="M144.9,53.1c-1.4-4.3-7.2-7.5-16.7-9.3c-4.2-0.8-10.6-1.9-17.5-1.9c-20.3,0-36.1,9.1-48.2,27.7
	c2.2-0.4,4.9-0.6,7.4,0.2c1.9,0.6,4.1,3.2,8.8,9c8,9.9,21.2,26.2,40.7,37.3c1.8-19.8,8.1-36.4,18.3-47.2
	C143.8,62.4,146.3,57.1,144.9,53.1z"/>
<path class="st2" d="M344.5,41.9c-6.9,0-13.3,1.1-17.5,1.9c-9.6,1.8-15.3,5-16.7,9.3c-1.3,4,1.1,9.3,7.2,15.8
	c10.2,10.8,16.6,27.5,18.3,47.2c19.5-11.1,32.7-27.4,40.7-37.3c4.7-5.8,6.9-8.5,8.8-9c2.5-0.8,5.2-0.6,7.4-0.2
	C380.6,51,364.9,41.9,344.5,41.9z"/>
<path class="st2" d="M240.4,118.4c-1.1,31.2-2.9,98.1,18.6,104.8l4.4,2.2c1.7,0.5,9.1,2,10.9,2.3c12.1,1.6,27.2-21.1,34.6-33.3
	c13.9-22.6,12.9-31.7,17.1-52.4c6.4-31.6-18-84.1-40.7-91.3c-9.5-3-21.9-9-30.6-6.8C239,47.8,242,71.9,240.4,118.4z M293.6,101.3
	c14.4,4.5,22.5,19.9,17.9,34.3s-19.9,22.5-34.3,17.9c-14.4-4.5-22.5-19.9-17.9-34.3C263.9,104.7,279.1,96.7,293.6,101.3z"/>
<path class="st2" d="M130.8,160.8c7.3,23.6,21.1,58.2,42.5,70.3l12.4,1.4c1.8,0,13.6,0.1,14.9-1.2c22.9-23,17.2-26.6,23.3-39.8
	c6.6-14.1,0-62.9-2.8-84.2c-4.4-32.6-0.2-64.4-24.4-63.7c-10.2,0.3-34-2-58.9,35.7C129,92.5,118.9,122.1,130.8,160.8z M169.9,101.1
	c15.4-0.4,25.1,10.4,25.6,25.8s-9.5,25.6-24.9,26c-15.4,0.4-25.1-9.1-25.6-24.5C144.7,112.9,154.5,101.5,169.9,101.1z"/>
<path class="st3" d="M-520.4-300.4"/>
<path class="st2" d="M-244.8,446.3"/>
<path class="st2" d="M-220.5,490"/>
<path class="st4" d="M-302.3,328.5"/>
<path class="st2" d="M-247.6,442.5"/>
<path class="st0" d="M-125.2,537.3"/>
<path class="st5" d="M-520.4-300.4"/>
<path class="st2" d="M366.2,176"/>
</svg>
