<?xml version="1.0" encoding="utf-8"?>
<!-- Generator: Adobe Illustrator 25.3.0, SVG Export Plug-In . SVG Version: 6.00 Build 0)  -->
<svg version="1.1" id="Capa_1" xmlns="http://www.w3.org/2000/svg" xmlns:xlink="http://www.w3.org/1999/xlink" x="0px" y="0px"
	 viewBox="0 0 281.6 139.6" style="enable-background:new 0 0 281.6 139.6;" xml:space="preserve">
<style type="text/css">
	.st0{fill:#020202;}
</style>
<g>
	<g>
		<path class="st0" d="M277,112.1V126c0,2.7-2.2,4.8-4.8,4.8l0,0h-7.3c-2.7,0-4.8-2.2-4.8-4.8l0,0v-13.9c0-2.7,2.2-4.8,4.8-4.8l0,0
			h7.3C274.8,107.2,277,109.4,277,112.1L277,112.1z"/>
		<path class="st0" d="M32,105c-9.5,0-17.3,7.8-17.3,17.3s7.8,17.3,17.3,17.3s17.3-7.7,17.3-17.3S41.6,105,32,105L32,105z M32,133.1
			c-6,0-10.9-4.9-10.9-10.9S26,111.4,32,111.4s10.9,4.9,10.9,10.9S38,133.1,32,133.1L32,133.1z"/>
		<path class="st0" d="M236,105c-9.5,0-17.3,7.7-17.3,17.3s7.7,17.3,17.3,17.3c9.5,0,17.3-7.7,17.3-17.3l0,0
			C253.3,112.7,245.5,105,236,105z M236,133.1c-6,0-10.9-4.9-10.9-10.9c0-6,4.9-10.9,10.9-10.9s10.9,4.9,10.9,10.9l0,0
			C246.9,128.3,242,133.1,236,133.1z"/>
		<path class="st0" d="M197.3,105c-9.5,0-17.3,7.7-17.3,17.3s7.7,17.3,17.3,17.3c9.5,0,17.3-7.7,17.3-17.3l0,0
			C214.6,112.7,206.8,105,197.3,105z M197.3,133.1c-6,0-10.9-4.9-10.9-10.9c0-6,4.9-10.9,10.9-10.9s10.9,4.9,10.9,10.9l0,0
			C208.1,128.3,203.3,133.1,197.3,133.1z"/>
		<path class="st0" d="M118.1,47h-8.5l-9.7,47.5h-0.1v7.2h181.9v-7.2H118.1V47z"/>
		<path class="st0" d="M57.7,48.7c0,0-4.5,15.3-9.2,27.4c-16.5,0.2-44.7,0-44.7,0v35.2H0v18.3h10.2v-8.9
			c0.7-12.1,11.1-21.3,23.2-20.5c11.6,0.7,20.7,10.4,20.6,22v7.4h41.2V48.7H57.7z M62.7,55.4h25.7v20.8H55.7
			C58.5,68.7,61.1,60.5,62.7,55.4L62.7,55.4z M88.6,124.7H60.8v-10.1h27.8V124.7z"/>
		<path class="st0" d="M108,41.7c1-0.2,2,0,2.8,0.6c0.1,0,0.1,0.1,0.2,0L220.6,7.7c0.2-0.1,0.4,0.2,0.6,0.6l0.1,0.3
			c0.1,0.4,0.4,0.7,0.6,0.6l10.7-3.4l0.3,0.9l8.9-2.8c0.1,0,0.1-0.1,0.2-0.2c1.2-4.4,5-5.8,7.5,1.3v0.1c1.1,4.4,5.9,15,3.6,17.7
			c-0.1,0.2-0.1,0.4-0.1,0.6l4.3,22.3c0,0.3,0.2,0.5,0.4,0.7c2.2,1.8,3.3,7.1,2.1,8.9c-0.1,0.4-0.1,0.8,0.2,1.2
			c2.2,2.6,2.6,9.1,0.1,8.1c-0.7-0.5-1.4-1-2-1.6c-0.8-1.1-1.5-4.1-0.3-2.9c0.5,1.5,2.5,2.4,2.1,0.3l-0.1-0.3
			c-0.1-0.9-0.7-1.7-1.6-2c-0.5-0.1-1-1.3-1-2.1c0-0.3-0.1-0.7-0.3-0.9c-2.2-2.2-3.2-7.8-1.4-9c0.1-0.2,0.2-0.4,0.1-0.6l-4.1-21.1
			c0-0.3-0.2-0.6-0.5-0.8c-1.3-0.5-2.8-2.4-3.6-4.9c0-0.1-0.1-0.2-0.1-0.2l-3.3-6c-0.1-0.2-0.3-0.4-0.5-0.4l-7.8,2.5
			c-0.2,0.1-0.2,0.4-0.1,0.8l0.1,0.3c0.1,0.4,0.1,0.8-0.1,0.8l-10.7,3.4l0.3,0.9l-107.5,34c-0.2,0.1-0.2,0.7,0,1.1l-5,5.6
			c-0.1-0.2-0.2-0.4-0.4-0.4C106.5,59.3,102.6,43.1,108,41.7L108,41.7z"/>
		<path class="st0" d="M174.7,112.1V126c0,2.7-2.2,4.8-4.8,4.8l0,0h-65.4c-2.7,0-4.8-2.2-4.8-4.8v-13.9c0-2.7,2.2-4.8,4.8-4.8h65.4
			C172.6,107.2,174.7,109.4,174.7,112.1L174.7,112.1z"/>
		<path class="st0" d="M124.7,63.5l11.9,9l-4.2,5.6l-11.9-9C120.5,69.1,124.7,63.5,124.7,63.5z"/>
		<path class="st0" d="M145.4,42.8l0.9,0.7c-4.8,6.5-18.8,17.8-18.8,17.8l10.6,8c0,0,6.9-16.6,11.9-23l1,0.8
			c1.2-1.5,0.9-3.7-0.7-4.9C148.7,40.9,146.5,41.2,145.4,42.8L145.4,42.8z"/>
		<path class="st0" d="M114.2,78l-3.3-2.5l-1.8,2.4l-0.9,5.1c6.5,2.2,10.5,8.8,9.3,15.6l-0.4,2.5c1.9-0.2,3.5-1.2,4.7-2.6l7.1-9.4
			l-3.3-2.5l3.5-7.4l-8.8-6.6L114.2,78z"/>
	</g>
</g>
</svg>
