<?xml version="1.0" encoding="utf-8"?>
<!-- Generator: Adobe Illustrator 25.3.0, SVG Export Plug-In . SVG Version: 6.00 Build 0)  -->
<svg version="1.1" id="Capa_1" xmlns="http://www.w3.org/2000/svg" xmlns:xlink="http://www.w3.org/1999/xlink" x="0px" y="0px"
	 viewBox="0 0 290.3 124.4" style="enable-background:new 0 0 290.3 124.4;" xml:space="preserve">
<style type="text/css">
	.st0{stroke:#000000;stroke-width:5;stroke-miterlimit:10;}
</style>
<g id="Capa_2_1_">
	<g id="Layer_2">
		<path d="M43.6,89.8c-9.5,0-17.3,7.7-17.3,17.3s7.7,17.3,17.3,17.3s17.3-7.7,17.3-17.3S53.1,89.8,43.6,89.8L43.6,89.8z M43.6,118
			c-6,0-10.9-4.9-10.9-10.9s4.9-10.9,10.9-10.9s10.9,4.9,10.9,10.9S49.6,118,43.6,118L43.6,118z"/>
		<path d="M143,89.8H72.5c-4.2,0-7.5,2.6-7.5,5.8v16c0,3.2,3.4,5.8,7.5,5.8H143c4.2,0,7.6-2.6,7.6-5.8v-16
			C150.5,92.4,147.1,89.8,143,89.8z"/>
		<path d="M0,100.9v14.2c0,1.6,1.3,2.9,2.9,2.9h17.6c1.6,0,2.9-1.3,2.9-2.9v-14.2H0z"/>
		<path d="M11.2,35.6h0.4c-1.6,0-2.5,1.4-2.9,2.9L0,66.1V97h25c2-3.6,4.9-6.5,8.5-8.4l0.4-0.2c0.4-0.2,0.9-0.4,1.3-0.6l0.2-0.1
			c0.5-0.2,1.1-0.4,1.6-0.6l0.3-0.1c0.5-0.2,1-0.3,1.5-0.4l0.2-0.1c0.6-0.1,1.2-0.2,1.8-0.3c0.9-0.1,1.7-0.2,2.6-0.2h3.2V35.6H11.2z
			 M40.1,66.3H7l7.5-23.9H40L40.1,66.3L40.1,66.3z"/>
		<rect x="53.2" y="2.5" class="st0" width="234.7" height="83.6"/>
		<path d="M51.8,28.7V11c-4.7-0.1-25.3,0-25.3,0c-3.2,0-4.7,2.5-5.8,5.8l-3.6,11.9C17.1,28.7,51.8,28.7,51.8,28.7z"/>
		<path d="M260.4,88.8h-3.5l-1.4,2c0.2,0.2,5.8,4.3,5.2,13.2v10.6h4.8v-10.4c0-0.6,0.1-1.2,0.1-1.8h2.7v-8H264
			C263.1,92.3,261.9,90.5,260.4,88.8z"/>
		<path d="M238.2,88.8c-9.5,0-17.3,7.7-17.3,17.3s7.7,17.3,17.3,17.3c9.5,0,17.3-7.7,17.3-17.3S247.8,88.8,238.2,88.8L238.2,88.8z
			 M238.2,117c-6,0-10.9-4.9-10.9-10.9s4.9-10.9,10.9-10.9s10.9,4.9,10.9,10.9l0,0C249.1,112.1,244.3,117,238.2,117L238.2,117
			L238.2,117z"/>
		<path d="M199.5,88.8c-9.5,0-17.3,7.7-17.3,17.3s7.7,17.3,17.3,17.3c9.5,0,17.3-7.7,17.3-17.3l0,0
			C216.8,96.5,209.1,88.8,199.5,88.8z M199.5,117c-6,0-10.9-4.9-10.9-10.9s4.9-10.9,10.9-10.9s10.9,4.9,10.9,10.9l0,0
			C210.4,112.1,205.6,117,199.5,117L199.5,117L199.5,117z"/>
	</g>
</g>
</svg>
