<svg width="0" height="0" class="hidden">
  <symbol xmlns="http://www.w3.org/2000/svg" viewBox="0 -960 960 960" id="close">
    <path d="M480-437.847 277.076-234.924q-8.307 8.308-20.884 8.5-12.576.193-21.268-8.5-8.693-8.692-8.693-21.076t8.693-21.076L437.847-480 234.924-682.924q-8.308-8.307-8.5-20.884-.193-12.576 8.5-21.268 8.692-8.693 21.076-8.693t21.076 8.693L480-522.153l202.924-202.923q8.307-8.308 20.884-8.5 12.576-.193 21.268 8.5 8.693 8.692 8.693 21.076t-8.693 21.076L522.153-480l202.923 202.924q8.308 8.307 8.5 20.884.193 12.576-8.5 21.268-8.692 8.693-21.076 8.693t-21.076-8.693L480-437.847Z"></path>
  </symbol>
  <symbol xmlns="http://www.w3.org/2000/svg" viewBox="0 -960 960 960" id="menu">
    <path d="M170.001-254.616q-12.75 0-21.375-8.629t-8.625-21.384q0-12.756 8.625-21.371 8.625-8.615 21.375-8.615h619.998q12.75 0 21.375 8.629 8.625 8.628 8.625 21.384 0 12.755-8.625 21.37-8.625 8.616-21.375 8.616H170.001Zm0-195.385q-12.75 0-21.375-8.628-8.625-8.629-8.625-21.384 0-12.756 8.625-21.371 8.625-8.615 21.375-8.615h619.998q12.75 0 21.375 8.628 8.625 8.629 8.625 21.384 0 12.756-8.625 21.371-8.625 8.615-21.375 8.615H170.001Zm0-195.384q-12.75 0-21.375-8.629-8.625-8.628-8.625-21.384 0-12.755 8.625-21.37 8.625-8.616 21.375-8.616h619.998q12.75 0 21.375 8.629t8.625 21.384q0 12.756-8.625 21.371-8.625 8.615-21.375 8.615H170.001Z"></path>
  </symbol>
  <symbol xmlns="http://www.w3.org/2000/svg" viewBox="0 -960 960 960" id="arrow-left">
    <path d="m142-480 294 294q15 15 14.5 35T435-116q-15 15-35 15t-35-15L57-423q-12-12-18-27t-6-30q0-15 6-30t18-27l308-308q15-15 35.5-14.5T436-844q15 15 15 35t-15 35L142-480Z"></path>
  </symbol>
  <symbol xmlns="http://www.w3.org/2000/svg" viewBox="0 -960 960 960" id="arrow-right">
    <path d="M579-480 285-774q-15-15-14.5-35.5T286-845q15-15 35.5-15t35.5 15l307 308q12 12 18 27t6 30q0 15-6 30t-18 27L356-115q-15 15-35 14.5T286-116q-15-15-15-35.5t15-35.5l293-293Z"></path>
  </symbol>
  <symbol xmlns="http://www.w3.org/2000/svg" viewBox="0 0 512 512" id="call">
    <path d="M391 480c-19.52 0-46.94-7.06-88-30-49.93-28-88.55-53.85-138.21-103.38C116.91 298.77 93.61 267.79 61 208.45c-36.84-67-30.56-102.12-23.54-117.13C45.82 73.38 58.16 62.65 74.11 52a176.3 176.3 0 0128.64-15.2c1-.43 1.93-.84 2.76-1.21 4.95-2.23 12.45-5.6 21.95-2 6.34 2.38 12 7.25 20.86 16 18.17 17.92 43 57.83 52.16 77.43 6.15 13.21 10.22 21.93 10.23 31.71 0 11.45-5.76 20.28-12.75 29.81-1.31 1.79-2.61 3.5-3.87 5.16-7.61 10-9.28 12.89-8.18 18.05 2.23 10.37 18.86 41.24 46.19 68.51s57.31 42.85 67.72 45.07c5.38 1.15 8.33-.59 18.65-8.47 1.48-1.13 3-2.3 4.59-3.47 10.66-7.93 19.08-13.54 30.26-13.54h.06c9.73 0 18.06 4.22 31.86 11.18 18 9.08 59.11 33.59 77.14 51.78 8.77 8.84 13.66 14.48 16.05 20.81 3.6 9.53.21 17-2 22-.37.83-.78 1.74-1.21 2.75a176.49 176.49 0 01-15.29 28.58c-10.63 15.9-21.4 28.21-39.38 36.58A67.42 67.42 0 01391 480z"></path>
  </symbol>
  <symbol xmlns="http://www.w3.org/2000/svg" viewBox="0 -960 960 960" id="colabo">
    <path d="M475-160q4 0 8-2t6-4l328-328q12-12 17.5-27t5.5-30q0-16-5.5-30.5T817-607L647-777q-11-12-25.5-17.5T591-800q-15 0-30 5.5T534-777l-11 11 74 75q15 14 22 32t7 38q0 42-28.5 70.5T527-522q-20 0-38.5-7T456-550l-75-74-175 175q-3 3-4.5 6.5T200-435q0 8 6 14.5t14 6.5q4 0 8-2t6-4l136-136 56 56-135 136q-3 3-4.5 6.5T285-350q0 8 6 14t14 6q4 0 8-2t6-4l136-135 56 56-135 136q-3 2-4.5 6t-1.5 8q0 8 6 14t14 6q4 0 7.5-1.5t6.5-4.5l136-135 56 56-136 136q-3 3-4.5 6.5T454-180q0 8 6.5 14t14.5 6Zm-1 80q-37 0-65.5-24.5T375-166q-34-5-57-28t-28-57q-34-5-56.5-28.5T206-336q-38-5-62-33t-24-66q0-20 7.5-38.5T149-506l232-231 131 131q2 3 6 4.5t8 1.5q9 0 15-5.5t6-14.5q0-4-1.5-8t-4.5-6L398-777q-11-12-25.5-17.5T342-800q-15 0-30 5.5T285-777L144-635q-9 9-15 21t-8 24q-2 12 0 24.5t8 23.5l-58 58q-17-23-25-50.5T40-590q2-28 14-54.5T87-692l141-141q24-23 53.5-35t60.5-12q31 0 60.5 12t52.5 35l11 11 11-11q24-23 53.5-35t60.5-12q31 0 60.5 12t52.5 35l169 169q23 23 35 53t12 61q0 31-12 60.5T873-437L545-110q-14 14-32.5 22T474-80Zm-99-560Z"></path>
  </symbol>
  <symbol xmlns="http://www.w3.org/2000/svg" viewBox="0 -960 960 960" id="email">
    <path d="M160-160q-33 0-56.5-23.5T80-240v-480q0-33 23.5-56.5T160-800h640q33 0 56.5 23.5T880-720v480q0 33-23.5 56.5T800-160H160Zm320-287q5 0 10.5-1.5T501-453l283-177q8-5 12-12.5t4-16.5q0-20-17-30t-35 1L480-520 212-688q-18-11-35-.5T160-659q0 10 4 17.5t12 11.5l283 177q5 3 10.5 4.5T480-447Z"></path>
  </symbol>
  <symbol xmlns="http://www.w3.org/2000/svg" viewBox="0 0 512 512" id="facebook">
    <path d="M480 257.35c0-123.7-100.3-224-224-224s-224 100.3-224 224c0 111.8 81.9 204.47 189 221.29V322.12h-56.89v-64.77H221V208c0-56.13 33.45-87.16 84.61-87.16 24.51 0 50.15 4.38 50.15 4.38v55.13H327.5c-27.81 0-36.51 17.26-36.51 35v42h62.12l-9.92 64.77H291v156.54c107.1-16.81 189-109.48 189-221.31z" fill-rule="evenodd"></path>
  </symbol>
  <symbol xmlns="http://www.w3.org/2000/svg" viewBox="0 -960 960 960" id="flexibility">
    <path d="M480-600 340-740l140-140 140 140-140 140ZM40-160v-160q0-34 23.5-57t56.5-23h131q20 0 38 10t29 27q29 39 71.5 61t90.5 22q49 0 91.5-22t70.5-61q13-17 30.5-27t36.5-10h131q34 0 57 23t23 57v160H640v-91q-35 25-75.5 38T480-200q-43 0-84-13.5T320-252v92H40Zm120-280q-50 0-85-35t-35-85q0-51 35-85.5t85-34.5q51 0 85.5 34.5T280-560q0 50-34.5 85T160-440Zm640 0q-50 0-85-35t-35-85q0-51 35-85.5t85-34.5q51 0 85.5 34.5T920-560q0 50-34.5 85T800-440Z"></path>
  </symbol>
  <symbol xmlns="http://www.w3.org/2000/svg" viewBox="0 -960 960 960" id="info">
    <path d="M440-280h80v-240h-80v240Zm40-320q17 0 28.5-11.5T520-640q0-17-11.5-28.5T480-680q-17 0-28.5 11.5T440-640q0 17 11.5 28.5T480-600Zm0 520q-83 0-156-31.5T197-197q-54-54-85.5-127T80-480q0-83 31.5-156T197-763q54-54 127-85.5T480-880q83 0 156 31.5T763-763q54 54 85.5 127T880-480q0 83-31.5 156T763-197q-54 54-127 85.5T480-80Zm0-80q134 0 227-93t93-227q0-134-93-227t-227-93q-134 0-227 93t-93 227q0 134 93 227t227 93Zm0-320Z"></path>
  </symbol>
  <symbol xmlns="http://www.w3.org/2000/svg" viewBox="0 0 512 512" id="instagram">
    <path d="M349.33 69.33a93.62 93.62 0 0193.34 93.34v186.66a93.62 93.62 0 01-93.34 93.34H162.67a93.62 93.62 0 01-93.34-93.34V162.67a93.62 93.62 0 0193.34-93.34h186.66m0-37.33H162.67C90.8 32 32 90.8 32 162.67v186.66C32 421.2 90.8 480 162.67 480h186.66C421.2 480 480 421.2 480 349.33V162.67C480 90.8 421.2 32 349.33 32z"></path>
    <path d="M377.33 162.67a28 28 0 1128-28 27.94 27.94 0 01-28 28zM256 181.33A74.67 74.67 0 11181.33 256 74.75 74.75 0 01256 181.33m0-37.33a112 112 0 10112 112 112 112 0 00-112-112z"></path>
  </symbol>
  <symbol xmlns="http://www.w3.org/2000/svg" viewBox="0 0 512 512" id="linkedin">
    <path d="M444.17 32H70.28C49.85 32 32 46.7 32 66.89v374.72C32 461.91 49.85 480 70.28 480h373.78c20.54 0 35.94-18.21 35.94-38.39V66.89C480.12 46.7 464.6 32 444.17 32zm-273.3 373.43h-64.18V205.88h64.18zM141 175.54h-.46c-20.54 0-33.84-15.29-33.84-34.43 0-19.49 13.65-34.42 34.65-34.42s33.85 14.82 34.31 34.42c-.01 19.14-13.31 34.43-34.66 34.43zm264.43 229.89h-64.18V296.32c0-26.14-9.34-44-32.56-44-17.74 0-28.24 12-32.91 23.69-1.75 4.2-2.22 9.92-2.22 15.76v113.66h-64.18V205.88h64.18v27.77c9.34-13.3 23.93-32.44 57.88-32.44 42.13 0 74 27.77 74 87.64z"></path>
  </symbol>
  <symbol xmlns="http://www.w3.org/2000/svg" viewBox="0 -960 960 960" id="location">
    <path d="M480-107q-14 0-28-5t-25-15q-65-60-115-117t-83.5-110.5q-33.5-53.5-51-103T160-552q0-150 96.5-239T480-880q127 0 223.5 89T800-552q0 45-17.5 94.5t-51 103Q698-301 648-244T533-127q-11 10-25 15t-28 5Zm0-373q33 0 56.5-23.5T560-560q0-33-23.5-56.5T480-640q-33 0-56.5 23.5T400-560q0 33 23.5 56.5T480-480Z"></path>
  </symbol>
  <symbol xmlns="http://www.w3.org/2000/svg" viewBox="0 -960 960 960" id="security">
    <path d="M480-80q-83 0-156-31.5T197-197q-54-54-85.5-127T80-480q0-83 31.5-156T197-763q54-54 127-85.5T480-880q83 0 156 31.5T763-763q54 54 85.5 127T880-480q0 83-31.5 156T763-197q-54 54-127 85.5T480-80ZM364-182l48-110q-42-15-72.5-46.5T292-412l-110 46q23 64 71 112t111 72Zm-72-366q17-42 47.5-73.5T412-668l-46-110q-64 24-112 72t-72 112l110 46Zm188 188q50 0 85-35t35-85q0-50-35-85t-85-35q-50 0-85 35t-35 85q0 50 35 85t85 35Zm116 178q63-24 110.5-71.5T778-364l-110-48q-15 42-46 72.5T550-292l46 110Zm72-368 110-46q-24-63-71.5-110.5T596-778l-46 112q41 15 71 45.5t47 70.5Z"></path>
  </symbol>
  <symbol xmlns="http://www.w3.org/2000/svg" viewBox="0 0 512 512" id="whatsapp">
    <path d="M414.73 97.1A222.14 222.14 0 00256.94 32C134 32 33.92 131.58 33.87 254a220.61 220.61 0 0029.78 111L32 480l118.25-30.87a223.63 223.63 0 00106.6 27h.09c122.93 0 223-99.59 223.06-222A220.18 220.18 0 00414.73 97.1zM256.94 438.66h-.08a185.75 185.75 0 01-94.36-25.72l-6.77-4-70.17 18.32 18.73-68.09-4.41-7A183.46 183.46 0 0171.53 254c0-101.73 83.21-184.5 185.48-184.5a185 185 0 01185.33 184.64c-.04 101.74-83.21 184.52-185.4 184.52zm101.69-138.19c-5.57-2.78-33-16.2-38.08-18.05s-8.83-2.78-12.54 2.78-14.4 18-17.65 21.75-6.5 4.16-12.07 1.38-23.54-8.63-44.83-27.53c-16.57-14.71-27.75-32.87-31-38.42s-.35-8.56 2.44-11.32c2.51-2.49 5.57-6.48 8.36-9.72s3.72-5.56 5.57-9.26.93-6.94-.46-9.71-12.54-30.08-17.18-41.19c-4.53-10.82-9.12-9.35-12.54-9.52-3.25-.16-7-.2-10.69-.2a20.53 20.53 0 00-14.86 6.94c-5.11 5.56-19.51 19-19.51 46.28s20 53.68 22.76 57.38 39.3 59.73 95.21 83.76a323.11 323.11 0 0031.78 11.68c13.35 4.22 25.5 3.63 35.1 2.2 10.71-1.59 33-13.42 37.63-26.38s4.64-24.06 3.25-26.37-5.11-3.71-10.69-6.48z" fill-rule="evenodd"></path>
  </symbol>
  <symbol xmlns="http://www.w3.org/2000/svg" viewBox="0 -960 960 960" id="arrow-right-2">
    <path d="M664.463-450.001H210.001q-12.769 0-21.384-8.615-8.616-8.615-8.616-21.384t8.616-21.384q8.615-8.615 21.384-8.615h454.462L532.769-641.693q-8.923-8.923-8.807-20.884.115-11.961 8.807-21.269 9.308-9.307 21.384-9.615 12.077-.308 21.384 9l179.154 179.154q5.615 5.615 7.923 11.846 2.308 6.23 2.308 13.461t-2.308 13.461q-2.308 6.231-7.923 11.846L575.537-275.539q-8.922 8.923-21.191 8.808-12.269-.116-21.577-9.423-8.692-9.308-9-21.077-.307-11.769 9-21.076l131.694-131.694Z"></path>
  </symbol>
  <symbol xmlns="http://www.w3.org/2000/svg" viewBox="0 -960 960 960" id="check">
    <path d="m382-339.384 345.539-345.538q8.923-8.923 21.192-9.116 12.269-.192 21.576 9.116 9.308 9.307 9.308 21.384 0 12.076-9.308 21.384l-363 362.999Q396.461-268.309 382-268.309q-14.461 0-25.307-10.846l-167-166.999q-8.923-8.923-8.808-21.192.116-12.269 9.423-21.576 9.308-9.308 21.384-9.308 12.077 0 21.384 9.308L382-339.384Z"></path>
  </symbol>
</svg>