<?xml version="1.0" standalone="no"?>
<!DOCTYPE svg PUBLIC "-//W3C//DTD SVG 20010904//EN"
 "http://www.w3.org/TR/2001/REC-SVG-20010904/DTD/svg10.dtd">
<svg version="1.0" xmlns="http://www.w3.org/2000/svg"
 width="512.000000pt" height="512.000000pt" viewBox="0 0 512.000000 512.000000"
 preserveAspectRatio="xMidYMid meet">
<metadata>
Created by potrace 1.14, written by Peter Selinger 2001-2017
</metadata>
<g transform="translate(0.000000,512.000000) scale(0.100000,-0.100000)"
fill="#000000" stroke="none">
<path d="M2408 4255 c-2 -1 -23 -5 -48 -8 -78 -9 -172 -35 -250 -67 -191 -79
-169 -77 -297 -24 -256 105 -484 103 -713 -9 -47 -23 -86 -54 -140 -111 -122
-127 -327 -333 -457 -456 -134 -128 -168 -182 -167 -262 1 -75 47 -126 121
-134 21 -2 52 2 68 8 72 28 218 136 351 260 l61 58 86 -104 c97 -117 211 -227
304 -293 l63 -45 1 -71 c0 -40 2 -81 3 -92 2 -11 6 -49 11 -85 4 -36 9 -68 11
-71 2 -4 6 -24 10 -45 19 -120 130 -370 270 -609 109 -184 174 -371 199 -570
3 -22 7 -51 10 -65 3 -14 10 -52 16 -85 34 -195 79 -302 157 -380 48 -46 135
-95 209 -114 71 -19 186 -23 229 -9 32 11 47 12 83 1 77 -22 249 0 334 43 36
18 107 74 141 111 48 51 95 177 120 318 3 17 8 40 10 51 4 20 11 59 22 124 2
14 6 41 9 60 2 19 7 46 10 60 45 208 75 280 232 545 57 97 155 308 183 394 42
129 69 292 70 417 l0 72 83 60 c88 64 215 191 311 310 l59 73 31 -29 c149
-142 285 -247 366 -283 107 -49 220 29 204 141 -3 25 -13 58 -21 75 -17 33
-86 120 -118 148 -11 10 -59 53 -107 95 -48 42 -143 135 -210 207 -248 261
-263 273 -385 317 -157 56 -322 67 -469 29 -74 -19 -108 -31 -189 -66 -39 -17
-87 -31 -100 -30 -28 4 -76 21 -140 51 -62 29 -163 60 -260 80 -30 6 -371 14
-377 9z"/>
</g>
</svg>
